<svg width="34" height="22" viewBox="0 0 34 22" fill="none" xmlns="http://www.w3.org/2000/svg">
<path d="M32.0406 2.35629C32.2589 1.57509 32.0406 1.00008 30.991 1.00008H27.5177C26.6333 1.00008 26.2263 1.49381 26.0082 2.04383C26.0082 2.04383 24.2392 6.61251 21.7389 9.57496C20.9311 10.4312 20.5596 10.7062 20.1173 10.7062C19.8993 10.7062 19.563 10.4311 19.563 9.64994V2.35622C19.563 1.41875 19.3153 1 18.5841 1H13.1238C12.5695 1 12.2393 1.43751 12.2393 1.84372C12.2393 2.73113 13.4894 2.93739 13.6192 5.4374V10.8624C13.6192 12.0499 13.4186 12.2685 12.9764 12.2685C11.7971 12.2685 8.9312 7.68118 7.23295 2.4312C6.89098 1.41252 6.55482 1 5.66438 1H2.1912C1.20055 1 1 1.49373 1 2.04375C1 3.01867 2.17937 7.86252 6.48995 14.2625C9.36169 18.6311 13.4069 21 17.0864 21C19.2977 21 19.569 20.475 19.569 19.5688C19.569 15.3937 19.3685 14.9999 20.4772 14.9999C20.9901 14.9999 21.8747 15.2748 23.9387 17.3811C26.2972 19.8811 26.6864 21 28.0074 21H31.4805C32.4712 21 32.9725 20.475 32.6835 19.4374C32.0231 17.2563 27.5592 12.7687 27.3587 12.4687C26.8457 11.7687 26.993 11.4561 27.3587 10.831C27.3646 10.825 31.6043 4.50001 32.0406 2.35629Z" stroke="white" stroke-miterlimit="10" stroke-linecap="round" stroke-linejoin="round"/>
</svg>
