<svg width="28" height="20" viewBox="0 0 28 20" fill="none" xmlns="http://www.w3.org/2000/svg">
<g clip-path="url(#clip0_348_75)">
<path d="M21.7083 0H5.38843C2.41718 0 0 2.43601 0 5.43024V14.5698C0 17.564 2.41718 20 5.38843 20H21.7083C24.6796 20 27.0968 17.564 27.0968 14.5698V5.43024C27.0968 2.43601 24.6796 0 21.7083 0ZM25.9908 14.5698C25.9908 16.9512 24.0696 18.8889 21.7083 18.8889H5.38843C3.02714 18.8889 1.10599 16.9512 1.10599 14.5698V5.43024C1.10599 3.04879 3.02714 1.11111 5.38843 1.11111H21.7083C24.0696 1.11111 25.9908 3.04879 25.9908 5.43024V14.5698Z" fill="white"/>
<path d="M18.4483 9.79902L10.7866 5.29052C10.6165 5.19046 10.4042 5.18879 10.2322 5.28785C10.0602 5.38685 9.9541 5.57074 9.9541 5.76985V14.7857C9.9541 14.9848 10.0602 15.1687 10.2319 15.2677C10.3172 15.3168 10.4123 15.3413 10.5071 15.3413C10.6037 15.3413 10.7001 15.3158 10.7866 15.2651L18.4483 10.7577C18.6176 10.6581 18.7218 10.4756 18.7218 10.2783C18.7218 10.0811 18.6179 9.89857 18.4483 9.79902ZM11.0601 13.8165V6.73913L17.0745 10.2783L11.0601 13.8165Z" fill="white"/>
</g>
<defs>
<clipPath id="clip0_348_75">
<rect width="27.0968" height="20" fill="white"/>
</clipPath>
</defs>
</svg>
