<svg width="18" height="18" viewBox="0 0 18 18" fill="none" xmlns="http://www.w3.org/2000/svg">
<path d="M16.4403 17.5C14.5557 17.5 12.6625 17.0618 10.7606 16.1856C8.85863 15.3093 7.11121 14.0731 5.51828 12.4769C3.92532 10.8808 2.69071 9.13333 1.81442 7.23463C0.938142 5.33592 0.5 3.44426 0.5 1.55966C0.5 1.25691 0.6 1.00462 0.8 0.802782C1 0.600948 1.25 0.500031 1.55 0.500031H4.8115C5.06407 0.500031 5.28682 0.582406 5.47977 0.747156C5.67272 0.911906 5.79548 1.11543 5.84803 1.35773L6.4211 4.30001C6.46085 4.57309 6.45252 4.80771 6.3961 5.00386C6.3397 5.20001 6.23842 5.36475 6.09225 5.49808L3.78265 7.74616C4.15445 8.42692 4.57913 9.07083 5.0567 9.67788C5.53427 10.2849 6.05125 10.8648 6.60765 11.4173C7.15638 11.966 7.73973 12.4757 8.35768 12.9462C8.97563 13.4167 9.64293 13.8545 10.3596 14.2596L12.6038 11.9962C12.7602 11.8334 12.9497 11.7193 13.1721 11.6539C13.3945 11.5885 13.6256 11.5725 13.8654 11.6058L16.6423 12.1712C16.8948 12.2378 17.1009 12.3667 17.2605 12.5577C17.4201 12.7487 17.5 12.9654 17.5 13.2077V16.45C17.5 16.75 17.399 17 17.1972 17.2C16.9954 17.4 16.7431 17.5 16.4403 17.5ZM3.07305 6.32696L4.85768 4.61926C4.88973 4.59361 4.91056 4.55835 4.92018 4.51348C4.92979 4.4686 4.92819 4.42693 4.91538 4.38848L4.48075 2.15386C4.46793 2.10257 4.4455 2.06411 4.41345 2.03848C4.3814 2.01283 4.33973 2.00001 4.28845 2.00001H2.14997C2.11152 2.00001 2.07948 2.01283 2.05383 2.03848C2.02818 2.06411 2.01535 2.09616 2.01535 2.13463C2.06663 2.81796 2.17849 3.5122 2.35092 4.21733C2.52337 4.92246 2.76408 5.62567 3.07305 6.32696ZM11.773 14.9692C12.4359 15.2782 13.1272 15.5144 13.8471 15.6779C14.567 15.8414 15.2397 15.9385 15.8654 15.9692C15.9038 15.9692 15.9359 15.9564 15.9615 15.9308C15.9872 15.9051 16 15.8731 16 15.8346V13.7308C16 13.6795 15.9872 13.6378 15.9615 13.6058C15.9359 13.5737 15.8974 13.5513 15.8461 13.5385L13.7461 13.1115C13.7077 13.0987 13.674 13.0971 13.6452 13.1067C13.6163 13.1163 13.5859 13.1372 13.5538 13.1692L11.773 14.9692Z" fill="white"/>
</svg>
